<svg width="24" height="24" viewBox="0 0 24 24" fill="none" xmlns="http://www.w3.org/2000/svg">
<path fill-rule="evenodd" clip-rule="evenodd" d="M11.9989 6C10.4838 6 8.34735 6.0681 5.58148 6.20596C4.58119 6.25583 3.77198 7.03793 3.68809 8.03597C3.56123 9.54509 3.4989 10.8525 3.4989 11.9619C3.4989 13.0848 3.56276 14.4106 3.69274 15.943C3.77635 16.9286 4.56796 17.7051 5.55507 17.7697C7.90699 17.9235 10.0545 18 11.9989 18C13.9435 18 16.0919 17.9235 18.4451 17.7696C19.4326 17.705 20.2243 16.928 20.3075 15.942C20.4358 14.4216 20.4989 13.096 20.4989 11.9619C20.4989 10.8416 20.4373 9.53432 20.3122 8.03691C20.2287 7.03849 19.4194 6.25588 18.4186 6.20601C15.6513 6.06815 13.5142 6 11.9989 6ZM5.48192 4.20844C8.25925 4.07 10.4343 4 11.9989 4C13.5636 4 15.7395 4.07005 18.5182 4.20849C20.5195 4.30822 22.1383 5.87341 22.3052 7.87029C22.4337 9.40688 22.4989 10.7718 22.4989 11.9619C22.4989 13.1666 22.4321 14.5504 22.3005 16.1102C22.1341 18.0823 20.5505 19.6362 18.5756 19.7653C16.1874 19.9215 13.9948 20 11.9989 20C10.0033 20 7.81142 19.9215 5.42454 19.7654C3.45033 19.6363 1.86711 18.0833 1.6999 16.112C1.56665 14.5412 1.4989 13.1566 1.4989 11.9619C1.4989 10.7816 1.56504 9.41591 1.69512 7.86844C1.86291 5.87237 3.48131 4.30817 5.48192 4.20844Z" fill="white"/>
<path fill-rule="evenodd" clip-rule="evenodd" d="M9.5 9.80458C9.5 8.68897 10.7664 7.97412 11.7257 8.61906L15.0243 10.8371C15.8542 11.395 15.8707 12.649 15.0151 13.2145L11.7164 15.3947C10.7897 16.0073 9.5 15.3535 9.5 14.203V9.80458ZM11.5 10.8774L13.1972 12.0186L11.5 13.1404V10.8774Z" fill="white"/>
</svg>
