<svg width="450" height="451" viewBox="0 0 450 451" fill="none" xmlns="http://www.w3.org/2000/svg">
<g clip-path="url(#clip0)" filter="url(#filter0_d)">
<path d="M26.3672 -7.91016L54.3171 385.929L225.175 442.09L396.033 385.929L423.983 -7.91016H26.3672Z" fill="white"/>
<path d="M423.808 -13.1836L395.858 380.656L225 436.816V-13.1836H423.808Z" fill="white"/>
<path d="M349.365 119.531H153.984L158.728 185.449H344.621L333.281 345.057L225.175 381.181L117.07 345.057L113.379 291.797H166.113L167.167 306.299L225.175 325.546L283.183 306.299L287.928 238.184H109.424L97.2942 66.7969H353.056L349.365 119.531Z" fill="#262FFF"/>
<path d="M344.621 185.449L333.281 345.057L225.175 381.181V325.546L283.183 306.299L287.928 238.184H225.175V185.449H344.621Z" fill="#262FFF"/>
<path d="M353.056 66.7969L349.365 119.531H225.175V66.7969H353.056Z" fill="#262FFF"/>
</g>
<defs>
<filter id="filter0_d" x="-4" y="0" width="458" height="458" filterUnits="userSpaceOnUse" color-interpolation-filters="sRGB">
<feFlood flood-opacity="0" result="BackgroundImageFix"/>
<feColorMatrix in="SourceAlpha" type="matrix" values="0 0 0 0 0 0 0 0 0 0 0 0 0 0 0 0 0 0 127 0" result="hardAlpha"/>
<feOffset dy="4"/>
<feGaussianBlur stdDeviation="2"/>
<feComposite in2="hardAlpha" operator="out"/>
<feColorMatrix type="matrix" values="0 0 0 0 0 0 0 0 0 0 0 0 0 0 0 0 0 0 0.25 0"/>
<feBlend mode="normal" in2="BackgroundImageFix" result="effect1_dropShadow"/>
<feBlend mode="normal" in="SourceGraphic" in2="effect1_dropShadow" result="shape"/>
</filter>
<clipPath id="clip0">
<rect width="450" height="450" fill="white"/>
</clipPath>
</defs>
</svg>
