<svg width="45" height="45" viewBox="0 0 45 45" fill="none" xmlns="http://www.w3.org/2000/svg">
<path d="M15 12.1875C15 7.5276 18.7776 3.75 23.4375 3.75C28.0974 3.75 31.875 7.5276 31.875 12.1875C31.875 16.8474 28.0974 20.625 23.4375 20.625C18.7776 20.625 15 16.8474 15 12.1875Z" fill="#262FFF"/>
<path d="M17.5448 24.375H27.4553C29.4874 24.375 31.1263 24.375 32.4536 24.4834C33.8203 24.5951 35.0205 24.831 36.1311 25.3967C37.8951 26.2956 39.3294 27.7297 40.2283 29.4939C40.794 30.6043 41.0299 31.8047 41.1416 33.1714C41.25 34.4985 41.25 36.1376 41.25 38.1698V39.375C41.25 40.4106 40.4106 41.25 39.375 41.25H5.625C4.58948 41.25 3.75 40.4106 3.75 39.375V38.1698C3.74998 36.1376 3.74996 34.4987 3.85841 33.1714C3.97007 31.8047 4.20596 30.6045 4.77182 29.4939C5.67062 27.7299 7.10481 26.2956 8.86886 25.3967C9.97941 24.831 11.1798 24.5951 12.5464 24.4834C13.8736 24.375 15.5127 24.375 17.5448 24.375Z" fill="#262FFF"/>
</svg>
