<svg width="148" height="150" viewBox="0 0 148 150" fill="none" xmlns="http://www.w3.org/2000/svg">
<rect x="0.25061" y="0.339111" width="147.42" height="149.626" rx="73.7101" fill="#262FFF"/>
<path fill-rule="evenodd" clip-rule="evenodd" d="M70.3628 35C68.7837 35 67.3527 35.9309 66.7114 37.3754L53.558 67.0002H46.4069C39.9275 66.9068 34.8347 72.1518 34.036 78.0629C34.012 78.2405 34 78.4197 34 78.5989V103.799C34 103.978 34.012 104.157 34.036 104.335C34.8707 110.513 40.1845 115.089 46.4073 114.999H55.8956C55.9228 114.999 55.95 114.999 55.9775 114.999H97.7473C103.313 115.05 108.071 110.995 108.909 105.486L113.872 73.0862L113.873 73.0802C114.366 69.831 113.408 66.5298 111.254 64.0502C109.106 61.5769 105.983 60.17 102.709 60.1998H85.1477V49.7999C85.1477 41.6261 78.5281 35 70.3628 35ZM59.9735 107H97.812C99.406 107.018 100.77 105.858 101.009 104.28L101.01 104.273L105.972 71.8794C106.112 70.9526 105.838 70.0074 105.223 69.2994C104.608 68.591 103.713 68.189 102.775 68.1994L102.73 68.2002L81.1518 68.1998C78.9449 68.1998 77.1559 66.4089 77.1559 64.1998V49.7999C77.1559 46.8911 75.3314 44.4089 72.7656 43.4375L59.9735 72.2486V107Z" fill="white"/>
</svg>
