<svg width="148" height="150" viewBox="0 0 148 150" fill="none" xmlns="http://www.w3.org/2000/svg">
<rect x="0.329224" y="0.339111" width="147.42" height="149.626" rx="73.7101" fill="#262FFF"/>
<path d="M111.514 32.5999C111.167 32.2168 110.669 32 110.148 32H37.8518C37.3314 32 36.8326 32.2168 36.4857 32.5999C36.1315 32.983 35.958 33.4962 36.0086 34.0167L42.5212 106.971C42.5863 107.737 43.1212 108.373 43.8584 108.59L73.4868 117.047C73.6458 117.097 73.8193 117.119 73.9928 117.119C74.1662 117.119 74.3325 117.097 74.4987 117.047L104.149 108.59C104.886 108.373 105.414 107.737 105.486 106.971L111.991 34.0167C112.042 33.4962 111.868 32.983 111.514 32.5999ZM95.9231 57.754H61.1121L61.9434 67.1724H95.0846L92.5981 95.0081L73.9855 100.632L73.8048 100.574L55.4091 95.0009L54.4044 83.6599H63.4179L63.8083 88.0618L74.094 90.2158L84.1917 88.0618L85.2687 76.1498H53.7322L51.2818 48.7549H96.7254L95.9231 57.754Z" fill="white"/>
</svg>
