<svg width="149" height="150" viewBox="0 0 149 150" fill="none" xmlns="http://www.w3.org/2000/svg">
<rect x="0.943489" y="0.339111" width="147.42" height="149.626" rx="73.7101" fill="#262FFF"/>
<path d="M44.3339 104.12C42.9419 104.12 41.7179 104.024 40.6619 103.832C39.6059 103.688 38.6939 103.52 37.9259 103.328V94.256C38.6939 94.448 39.5099 94.616 40.3739 94.76C41.1899 94.904 42.0779 94.976 43.0379 94.976C44.2859 94.976 45.4139 94.736 46.4219 94.256C47.4779 93.776 48.2939 92.864 48.8699 91.52C49.4459 90.176 49.7339 88.256 49.7339 85.76V37.592H60.6059V85.688C60.6059 90.104 59.9099 93.656 58.5179 96.344C57.1739 99.08 55.2779 101.048 52.8299 102.248C50.3819 103.496 47.5499 104.12 44.3339 104.12ZM103.882 74.744C103.882 79.304 102.226 82.952 98.9138 85.688C95.6498 88.376 90.9938 89.72 84.9458 89.72C79.5218 89.72 74.6738 88.688 70.4018 86.624V76.472C72.8498 77.528 75.3698 78.512 77.9618 79.424C80.6018 80.288 83.2178 80.72 85.8098 80.72C88.4978 80.72 90.3938 80.216 91.4978 79.208C92.6498 78.152 93.2258 76.832 93.2258 75.248C93.2258 73.952 92.7698 72.848 91.8578 71.936C90.9938 71.024 89.8178 70.184 88.3298 69.416C86.8418 68.6 85.1378 67.736 83.2178 66.824C82.0178 66.248 80.7218 65.576 79.3298 64.808C77.9378 63.992 76.5938 63.008 75.2978 61.856C74.0498 60.656 73.0178 59.216 72.2018 57.536C71.3858 55.856 70.9778 53.84 70.9778 51.488C70.9778 46.88 72.5378 43.304 75.6578 40.76C78.7778 38.168 83.0258 36.872 88.4018 36.872C91.0898 36.872 93.6338 37.184 96.0338 37.808C98.4818 38.432 101.026 39.32 103.666 40.472L100.138 48.968C97.7858 48.008 95.6738 47.264 93.8018 46.736C91.9298 46.208 90.0098 45.944 88.0418 45.944C85.9778 45.944 84.3938 46.424 83.2898 47.384C82.1858 48.344 81.6338 49.592 81.6338 51.128C81.6338 52.952 82.4498 54.392 84.0818 55.448C85.7138 56.504 88.1378 57.8 91.3538 59.336C93.9938 60.584 96.2258 61.88 98.0498 63.224C99.9218 64.568 101.362 66.152 102.37 67.976C103.378 69.8 103.882 72.056 103.882 74.744Z" fill="white"/>
</svg>
